<svg xmlns="http://www.w3.org/2000/svg" xmlns:xlink="http://www.w3.org/1999/xlink" width="26" height="26" viewBox="0 0 40 40">
    <defs>
        <path id="a" d="M.21.035h32.193v5.797H.209z"/>
    </defs>
    <g fill="none" fill-rule="evenodd">
        <path fill="#016FD0" d="M0 0v40h40V0z"/>
        <g transform="translate(7.546 20.359)">
            <mask id="b" fill="#fff">
                <use xlink:href="#a"/>
            </mask>
            <path fill="#FFF" d="M.21 5.832V.035h6.64l.712.858.736-.858h24.105v5.397s-.63.394-1.36.4H17.697l-.803-.914v.914h-2.632v-1.56s-.36.218-1.138.218h-.895v1.342H8.242l-.711-.877-.723.877H.21z" mask="url(#b)"/>
        </g>
        <path fill="#FFF" d="M0 16.025l1.498-3.227h2.59l.85 1.807v-1.807h3.219l.505 1.306.491-1.306h14.452v.657s.76-.657 2.008-.657l4.689.015.835 1.784v-1.8h2.694l.742 1.026v-1.025h2.719v5.797h-2.72l-.71-1.028v1.028h-3.958l-.398-.914h-1.064l-.392.914h-2.684c-1.075 0-1.761-.644-1.761-.644v.644h-4.048l-.803-.914v.914H3.704l-.398-.914h-1.06l-.396.914H0v-2.57z"/>
        <path fill="#016FD0" d="M2.775 14.523l.66 1.518H2.113l.662-1.518zm-.747-1.01l-2.02 4.34h1.315l.372-.87h2.167l.37.87h1.345l-2.018-4.34H2.028zM5.716 17.852v-4.34l1.868.006 1.088 2.799 1.06-2.805h1.854v4.34h-1.174v-3.198l-1.244 3.198h-1.03L6.89 14.654v3.198zM12.39 17.852v-4.34h3.83v.97h-2.644v.743h2.583v.914h-2.583v.77h2.645v.943zM18.074 14.483h1.342c.322 0 .557.233.557.457 0 .289-.304.457-.54.457h-1.359v-.914zm-1.174-.97v4.34h1.174v-1.542h.495l1.407 1.542h1.435l-1.545-1.6c.634-.049 1.288-.552 1.288-1.332 0-.914-.775-1.408-1.641-1.408H16.9zM21.634 17.852h1.198v-4.34h-1.198zM25.675 17.852h-.259c-1.252 0-2.012-.911-2.012-2.152 0-1.272.751-2.188 2.332-2.188h1.298v1.028H25.69c-.642 0-1.096.463-1.096 1.17 0 .841.52 1.194 1.267 1.194h.31l-.495.948zM28.977 14.523l.66 1.518h-1.323l.663-1.518zm-.748-1.01l-2.02 4.34h1.316l.372-.87h2.167l.37.87h1.345l-2.018-4.34h-1.532zM31.916 17.852v-4.34h1.492l1.906 2.727v-2.727h1.174v4.34h-1.444l-1.954-2.798v2.798zM8.558 25.448v-4.34h3.832v.97H9.745v.743h2.583v.914H9.745v.77h2.645v.943zM27.33 25.448v-4.34h3.832v.97h-2.645v.743h2.57v.914h-2.57v.77h2.645v.943zM12.538 25.448l1.865-2.143-1.91-2.197h1.48l1.137 1.358 1.141-1.358h1.422l-1.885 2.17 1.869 2.17h-1.48l-1.104-1.337-1.077 1.337zM19.001 22.09h1.302c.337 0 .58.191.58.5 0 .29-.241.5-.584.5H19v-1zm-1.205-.982v4.34h1.205v-1.37h1.236c1.046 0 1.838-.513 1.838-1.51 0-.826-.621-1.46-1.685-1.46h-2.594zM23.76 22.079H25.1c.322 0 .556.232.556.457 0 .288-.303.456-.538.456h-1.36v-.913zm-1.175-.971v4.34h1.174v-1.542h.495l1.407 1.542h1.435L25.55 23.85c.634-.05 1.288-.552 1.288-1.333 0-.914-.776-1.408-1.641-1.408h-2.613zM31.706 25.448v-.942h2.35c.347 0 .498-.174.498-.364 0-.183-.15-.367-.499-.367h-1.061c-.923 0-1.438-.52-1.438-1.3 0-.696.471-1.367 1.843-1.367h2.286l-.494.976h-1.978c-.378 0-.494.184-.494.359 0 .18.144.378.433.378h1.112c1.029 0 1.475.54 1.475 1.246 0 .76-.497 1.381-1.531 1.381h-2.502zM36.015 25.448v-.942h2.25c.348 0 .498-.174.498-.364 0-.183-.15-.367-.498-.367h-.962c-.923 0-1.437-.52-1.437-1.3 0-.696.47-1.367 1.842-1.367h2.24l-.494.976h-1.931c-.379 0-.495.184-.495.359 0 .18.144.378.433.378h1.012c1.03 0 1.476.54 1.476 1.246 0 .76-.498 1.381-1.532 1.381h-2.402z"/>
    </g>
</svg>
