<svg xmlns="http://www.w3.org/2000/svg" xmlns:xlink="http://www.w3.org/1999/xlink" width="72" height="12" viewBox="0 0 72 12">
    <defs>
        <path id="a" d="M0 .045h9.221v11.417H0z"/>
        <path id="c" d="M.025.018h1.716v1.76H.025z"/>
        <path id="e" d="M0 6.004a5.98 5.98 0 0 0 5.982 5.98 5.98 5.98 0 0 0 0-11.96A5.98 5.98 0 0 0 0 6.004"/>
        <path id="g" d="M0 6.004a5.98 5.98 0 0 0 5.982 5.98 5.98 5.98 0 0 0 0-11.96A5.98 5.98 0 0 0 0 6.004"/>
        <linearGradient id="j" x1="80.573%" x2="15.053%" y1="90.043%" y2="11.043%">
            <stop offset="0%" stop-color="#F79C21"/>
            <stop offset="55.665%" stop-color="#E25E25"/>
            <stop offset="100%" stop-color="#BF4824"/>
        </linearGradient>
        <path id="i" d="M0 6.004a5.98 5.98 0 0 0 5.982 5.98 5.98 5.98 0 0 0 0-11.96A5.98 5.98 0 0 0 0 6.004"/>
    </defs>
    <g fill="none" fill-rule="evenodd">
        <g transform="translate(0 .226)">
            <mask id="b" fill="#fff">
                <use xlink:href="#a"/>
            </mask>
            <path fill="#221E1F" d="M2.185 9.312c0 .155.031.204.192.202.438-.006.876-.001 1.311-.05.794-.091 1.54-.323 2.121-.914.977-.995 1.337-2.204 1.065-3.572C6.601 3.6 5.821 2.63 4.468 2.203 3.81 1.996 3.124 2.01 2.442 2c-.194-.003-.261.036-.259.253.012 1.169.009 5.875.002 7.06M0 .296C0 .11.026.042.235.045 1.303.06 2.373.03 3.44.064c1.57.05 2.998.515 4.162 1.643a5.118 5.118 0 0 1 1.503 2.829c.395 2.196-.214 4.06-1.86 5.55-.898.813-1.975 1.222-3.164 1.32-1.311.107-2.626.022-3.938.05-.157.005-.14-.082-.14-.182C.005 10.15.008 2.114 0 .297" mask="url(#b)"/>
        </g>
        <path fill="#221E1F" d="M63.817 3.81c0 .504.01 1.01-.004 1.513-.005.177.05.212.21.205.325-.013.65-.006.976-.04.952-.103 1.494-.663 1.565-1.633.056-.78-.336-1.372-1.067-1.615-.48-.16-.976-.143-1.472-.153-.161-.003-.216.033-.212.209.013.504.004 1.009.004 1.514m2.486 3.09l3.516 4.78h-.473c-.66 0-1.322-.01-1.982.006-.2.005-.3-.07-.404-.228-.916-1.396-1.84-2.786-2.761-4.178-.013-.02-.028-.037-.036-.058-.056-.139-.175-.13-.282-.107-.117.024-.06.136-.06.206-.005 1.366-.01 2.732.002 4.098.002.227-.064.272-.272.266a44.774 44.774 0 0 0-1.737-.002c-.146.002-.205-.025-.205-.193.005-3.676.005-7.351.002-11.027 0-.124.013-.192.165-.188C63.022.3 64.27.224 65.515.32c.864.068 1.677.305 2.342.904.797.72 1.022 1.662.967 2.7-.08 1.529-.898 2.538-2.357 2.914-.05.012-.096.035-.164.06M53.982.5c0-.172.034-.228.215-.227 1.93.007 3.86.006 5.79.001.15 0 .204.03.2.195-.01.528-.01 1.057 0 1.585.004.159-.054.18-.19.18-1.195-.005-2.39.002-3.584-.009-.204-.002-.244.059-.24.252.011.687.01 1.374 0 2.06-.003.172.045.213.21.212 1.15-.007 2.301.001 3.451-.009.182-.001.217.056.213.225-.01.506-.01 1.012 0 1.517.004.16-.041.198-.195.197-1.143-.007-2.286.002-3.43-.01-.212-.002-.252.067-.25.265.01.86.01 1.72.001 2.58-.002.172.033.228.215.227 1.195-.01 2.39 0 3.585-.01.178-.001.218.05.214.223-.01.52-.007 1.042-.001 1.562.001.125-.029.167-.159.167-1.96-.004-3.919-.006-5.878.002-.178 0-.164-.088-.164-.207.001-1.84.003-9.16-.003-10.979M14.64 8.385c.294.562.684 1.02 1.257 1.275.616.276 1.25.371 1.89.08.582-.263.895-.735.92-1.376.025-.636-.309-1.061-.85-1.336-.623-.316-1.296-.504-1.932-.785-.622-.274-1.214-.592-1.643-1.154a2.337 2.337 0 0 1-.459-1.157C13.596 2.06 14.605.72 16.135.28c1.599-.46 3.038-.056 4.327.974.095.076.128.13.037.246-.329.418-.65.842-.96 1.274-.094.132-.135.094-.22.001-.352-.38-.754-.688-1.276-.764-.658-.096-1.281-.01-1.74.545-.41.496-.318 1.12.2 1.494.463.335 1.003.503 1.525.709.49.192.968.407 1.426.671.934.539 1.448 1.329 1.515 2.436.113 1.869-.854 3.447-2.654 3.918-1.92.501-3.797-.054-5.03-1.903-.05-.077-.056-.121.014-.189.447-.43.889-.865 1.34-1.307M42.232.278c.761 0 1.489.005 2.215-.005.146-.001.203.052.253.181.67 1.722 2.597 6.654 2.893 7.415.136-.152 2.062-5.12 2.97-7.423.037-.092.063-.173.195-.172.741.007 1.483.004 2.256.004-.176.43-3.353 8.094-4.767 11.517-.056.135-.118.18-.257.174-.282-.01-.564-.01-.846 0-.125.005-.182-.042-.228-.157-.872-2.149-3.929-9.658-4.582-11.265-.034-.082-.063-.166-.102-.27M30.303 3.36c-.414-.401-.81-.74-1.284-.962-1.864-.876-4.107.065-4.825 2.074-.553 1.548-.37 3.02.742 4.276.743.84 1.725 1.147 2.82 1.136.87-.01 1.588-.369 2.223-.94.094-.084.184-.171.275-.256.08.044.047.112.047.165.002.747 0 1.494.003 2.241 0 .114-.016.183-.137.242-2.25 1.102-5.097.666-6.858-1.167-1.09-1.133-1.626-2.502-1.66-4.087-.057-2.681 1.7-5.02 4.145-5.77 1.5-.46 2.964-.373 4.376.348.076.039.135.072.135.18-.004.821-.002 1.643-.002 2.52M12.415 11.431c0 .188-.026.262-.237.255a41.27 41.27 0 0 0-1.782-.003c-.144.002-.188-.035-.188-.187.004-3.675.004-7.35 0-11.026 0-.165.053-.198.203-.196.586.008 1.173.012 1.759-.001.194-.005.247.042.246.246-.008 1.826-.007 9.101 0 10.912"/>
        <g transform="translate(69.348 .181)">
            <mask id="d" fill="#fff">
                <use xlink:href="#c"/>
            </mask>
            <path fill="#242121" d="M.883 1.615c-.373 0-.676-.32-.676-.717C.207.502.51.182.883.182c.374 0 .677.32.677.716 0 .396-.303.717-.677.717m0-1.597a.87.87 0 0 0-.858.88c0 .487.384.88.858.88a.87.87 0 0 0 .858-.88.87.87 0 0 0-.858-.88" mask="url(#d)"/>
        </g>
        <path fill="#221E1F" d="M70.082.89v.137c0 .016.004.02.019.018.029 0 .058 0 .088-.003.086-.01.135-.06.14-.148a.134.134 0 0 0-.095-.145C70.19.734 70.146.736 70.1.735c-.015 0-.02.003-.02.019.002.045.001.09.001.136m.224.28c.107.143.21.285.318.43h-.043l-.179.001c-.018 0-.027-.006-.036-.02l-.25-.377-.003-.006c-.005-.012-.016-.011-.025-.01-.01.003-.006.013-.006.02v.37c0 .02-.005.024-.024.023a4.31 4.31 0 0 0-.157 0c-.013 0-.018-.002-.018-.017V.588c0-.011.001-.017.015-.017.112.003.225-.004.337.004a.344.344 0 0 1 .212.082c.072.065.092.15.087.244a.266.266 0 0 1-.213.263c-.004 0-.008.003-.015.005"/>
        <g transform="translate(31.059)">
            <mask id="f" fill="#fff">
                <use xlink:href="#e"/>
            </mask>
            <path d="M0 6.004a5.98 5.98 0 0 0 5.982 5.98 5.98 5.98 0 0 0 0-11.96A5.98 5.98 0 0 0 0 6.004" mask="url(#f)"/>
        </g>
        <g transform="translate(31.059)">
            <mask id="h" fill="#fff">
                <use xlink:href="#g"/>
            </mask>
            <path d="M0 6.004a5.98 5.98 0 0 0 5.982 5.98 5.98 5.98 0 0 0 0-11.96A5.98 5.98 0 0 0 0 6.004" mask="url(#h)"/>
        </g>
        <g transform="translate(31.059)">
            <use fill="url(#j)" xlink:href="#i"/>
        </g>
    </g>
</svg>
