<svg xmlns="http://www.w3.org/2000/svg" xmlns:xlink="http://www.w3.org/1999/xlink" width="26" height="26" viewBox="0 0 32 32">
    <defs>
        <path id="a" d="M0 0h32v31.995H0z"/>
    </defs>
    <g fill="none" fill-rule="evenodd">
        <g>
            <mask id="b" fill="#fff">
                <use xlink:href="#a"/>
            </mask>
            <path fill="#111211" d="M16 0c8.837 0 16 7.163 16 16s-7.163 16-16 16S0 24.837 0 16 7.163 0 16 0" mask="url(#b)"/>
        </g>
        <path fill="#FFFFFE" d="M6.345 16.964a2.81 2.81 0 0 1 4.908-2.115l-4.908 2.115zm2.799-5.17a4.913 4.913 0 0 0-4.09 7.636l4.86-2.125 2.026-.89v.004l1.98-.866a4.915 4.915 0 0 0-4.776-3.759zM12.577 20.222c-1.76 1.67-4.086 1.833-6.131.592L7.6 19.057c1.164.696 2.333.583 3.507-.34l1.469 1.505M14.577 19.005l-.012-9.29h1.76v9.04c0 .086.01.163.125.207l1.53.595-.689 1.794-1.794-.759c-.68-.288-.919-.705-.92-1.587"/>
        <path fill="#2B87B0" d="M21.205 18.85a2.798 2.798 0 0 1-1.085-2.215c0-.8.336-1.522.874-2.033l-1.136-1.843a4.933 4.933 0 0 0-1.877 3.876c0 1.694.852 3.188 2.15 4.078l1.074-1.864"/>
        <path fill="#F6EA3D" d="M21.976 13.996a2.805 2.805 0 0 1 3.573 1.65l2.178-.181a4.944 4.944 0 0 0-6.66-3.41l.909 1.941"/>
        <path fill="#BE352D" d="M25.725 16.77a2.804 2.804 0 0 1-3.484 2.585l-.854 1.978a4.943 4.943 0 0 0 6.475-4.495l-2.137-.067"/>
    </g>
</svg>
