<svg xmlns="http://www.w3.org/2000/svg" width="60" height="26" viewBox="0 0 60 26">
    <g fill="none" fill-rule="evenodd">
        <path fill="#AD292E" d="M.04 25.99h51.83c1.697 0 3.355-1.392 3.683-3.093L59.923.246H8.092c-1.698 0-3.357 1.392-3.684 3.092L.039 25.99"/>
        <path fill="#FFFFFE" d="M4.494 16.931c.347-1.255.678-2.665.99-4.229.313-1.564.591-3.21.835-4.943.214.027.368.042.46.052a2.466 2.466 0 0 0 .52 0c.114-.012.26-.027.44-.052-.201.645-.405 1.472-.612 2.486l-.03.143-.263 1.294c.186.004.456.013.802.024a81.85 81.85 0 0 0 1.515.027 111.864 111.864 0 0 0 2.705-.051l.307-1.477c.112-.564.193-1.025.241-1.383.05-.358.088-.714.114-1.063.176.027.318.042.426.052.11.008.208.013.294.013.059 0 .14-.005.24-.013.101-.01.257-.025.472-.052a83.907 83.907 0 0 0-1.173 5.021c-.313 1.583-.533 2.968-.658 4.151-.232-.031-.386-.049-.464-.056a2.453 2.453 0 0 0-.204-.009 3.94 3.94 0 0 0-.298.014 7.81 7.81 0 0 0-.46.051 79.55 79.55 0 0 0 .418-1.636c.116-.474.204-.854.263-1.143l.353-1.77c-.39 0-.857-.002-1.403-.007l-1.057-.006c-.432 0-.857 0-1.271.002-.417.002-.847.006-1.291.011l-.31 1.488c-.085.445-.166.922-.247 1.425-.08.506-.158 1.05-.24 1.636a13.283 13.283 0 0 0-.414-.049 2.78 2.78 0 0 0-.556-.002c-.108.009-.255.024-.444.051zm10.677-8.785c0-.195.061-.353.184-.474a.639.639 0 0 1 .471-.182c.202 0 .358.059.47.173.111.114.166.275.166.483a.644.644 0 0 1-.186.47.621.621 0 0 1-.463.192.61.61 0 0 1-.458-.188.651.651 0 0 1-.184-.474zm-1.515 8.785c.36-1.39.638-2.643.837-3.757.2-1.114.307-2.005.325-2.674a6 6 0 0 0 .682.052 5.315 5.315 0 0 0 .7-.052 40.89 40.89 0 0 0-.814 3.55c-.195 1.095-.312 2.056-.349 2.881a9.83 9.83 0 0 0-.447-.051 3.043 3.043 0 0 0-.261-.014c-.06 0-.138.005-.237.014-.098.009-.243.024-.436.051zm5.803-.604c.657 0 1.207-.333 1.648-1 .44-.665.662-1.493.662-2.48 0-.573-.127-1.02-.381-1.347-.254-.324-.605-.487-1.05-.487-.682 0-1.248.333-1.702 1.002-.453.67-.681 1.497-.681 2.484 0 .602.127 1.058.379 1.367.252.307.627.46 1.125.46zm-4.001 4.27a62.848 62.848 0 0 0 1.12-4.682c.348-1.718.66-3.522.934-5.415a7.398 7.398 0 0 0 .552.04c.072 0 .16-.004.263-.01.104-.007.22-.017.347-.03l-.243.938c.324-.372.67-.647 1.036-.828a2.663 2.663 0 0 1 1.2-.273c.714 0 1.28.24 1.7.72.42.481.63 1.132.63 1.954 0 1.166-.331 2.137-.995 2.91-.665.773-1.5 1.16-2.506 1.16a1.84 1.84 0 0 1-1.134-.387 1.982 1.982 0 0 1-.708-1.01l-.29 1.502c-.017.083-.043.213-.076.387a72.235 72.235 0 0 0-.546 3.023 11.395 11.395 0 0 0-.364-.058 1.599 1.599 0 0 0-.221-.02c-.09 0-.193.007-.311.02a5.32 5.32 0 0 0-.388.058zm9.191-7.508l.513.014c.516.008.856.013 1.022.013.193 0 .568-.005 1.125-.013.22-.005.388-.01.506-.014.013-.143.024-.266.031-.367.007-.1.009-.188.009-.262 0-.503-.11-.897-.327-1.183-.22-.287-.522-.43-.905-.43-.458 0-.866.2-1.22.6-.352.4-.604.948-.754 1.642zm-.122.566a6.818 6.818 0 0 0-.05.844c0 .63.15 1.114.456 1.452.304.338.738.508 1.304.508.355 0 .695-.083 1.024-.246.326-.164.67-.425 1.03-.783l.16.132c-.064.13-.123.268-.175.416a4.797 4.797 0 0 0-.145.454c-.368.237-.723.41-1.063.521-.34.112-.69.168-1.05.168-.856 0-1.537-.26-2.046-.776-.506-.52-.76-1.215-.76-2.088 0-1.114.326-2.05.982-2.804.655-.754 1.482-1.13 2.479-1.13.732 0 1.305.233 1.721.696.414.464.622 1.106.622 1.927 0 .045-.004.127-.012.253l-.033.456h-.3c-.976-.018-1.669-.027-2.075-.027-.085 0-.363.003-.835.01l-1.234.017zm4.479 3.276c.318-1.237.572-2.41.767-3.52.195-1.11.32-2.08.377-2.91.118.017.228.028.322.037a2.753 2.753 0 0 0 .548 0c.099-.009.206-.02.318-.038-.066.197-.12.4-.164.613-.046.21-.084.435-.112.67.29-.45.6-.797.934-1.046.33-.246.651-.369.96-.369a1.166 1.166 0 0 1 .353.054 4.607 4.607 0 0 0-.187 1.118 8.452 8.452 0 0 0-.368-.069 1.624 1.624 0 0 0-.26-.022c-.601 0-1.062.38-1.384 1.143-.324.761-.598 2.207-.826 4.34a13.23 13.23 0 0 0-.382-.048 1.846 1.846 0 0 0-.476-.005c-.079.01-.219.025-.42.052zm8.679-.36c-.312.179-.634.313-.963.403-.329.09-.67.134-1.022.134-.84 0-1.516-.262-2.032-.783-.515-.522-.774-1.21-.774-2.068 0-1.1.342-2.027 1.028-2.78.684-.75 1.546-1.127 2.58-1.127.442 0 .843.045 1.204.135.362.089.693.223.994.402-.09.18-.167.363-.23.55a4.495 4.495 0 0 0-.156.564l-.198.014c-.151-.362-.357-.644-.62-.843a1.453 1.453 0 0 0-.903-.298c-.689 0-1.272.336-1.747 1.01-.476.673-.713 1.492-.713 2.458 0 .68.153 1.204.46 1.569.305.365.743.548 1.314.548.385 0 .745-.08 1.08-.24.338-.158.612-.382.827-.67l.186.149a5.944 5.944 0 0 0-.178.423 5.054 5.054 0 0 0-.137.45zm4.048-.524c-.3.35-.605.607-.918.77a2.163 2.163 0 0 1-1.015.246c-.509 0-.912-.14-1.204-.423-.294-.282-.44-.662-.44-1.143 0-.613.197-1.088.593-1.425.397-.34 1.097-.607 2.099-.804l1.103-.217a.52.52 0 0 0 .378-.322c.082-.18.123-.443.123-.792 0-.343-.098-.609-.296-.801-.197-.193-.47-.29-.822-.29a2 2 0 0 0-1.045.274c-.305.181-.542.44-.713.776l-.226-.04c.035-.13.06-.257.077-.38.018-.121.026-.242.026-.36a1.29 1.29 0 0 0-.006-.108 1.58 1.58 0 0 1-.007-.12 3.94 3.94 0 0 1 .976-.437c.33-.094.682-.14 1.054-.14.647 0 1.142.14 1.491.424.346.284.52.69.52 1.215 0 .152-.014.342-.042.566-.028.226-.068.468-.118.725l-.446 2.276a2.61 2.61 0 0 0-.064.53c0 .128.036.224.104.293.068.07.165.106.29.106a.75.75 0 0 0 .166-.02c.061-.012.147-.037.256-.07l.17.345a2.952 2.952 0 0 1-.59.264 1.91 1.91 0 0 1-.555.085c-.283 0-.504-.087-.662-.26-.158-.172-.243-.418-.257-.743zm.417-2.524l-1.079.255c-.624.146-1.08.345-1.368.598-.287.253-.43.582-.43.984 0 .296.088.537.261.72.174.184.402.276.685.276.37 0 .725-.137 1.058-.407.334-.271.533-.584.597-.938l.276-1.488zm1.826 3.408c.318-1.237.572-2.41.767-3.52.195-1.11.32-2.08.377-2.91.119.017.228.028.322.037a2.753 2.753 0 0 0 .549 0c.098-.009.205-.02.317-.038-.065.197-.12.4-.164.613-.046.21-.083.435-.112.67.29-.45.601-.797.934-1.046.331-.246.651-.369.96-.369.055 0 .112.005.171.013.057.01.119.023.182.04a4.675 4.675 0 0 0-.186 1.12 8.454 8.454 0 0 0-.368-.07 1.623 1.623 0 0 0-.261-.022c-.6 0-1.062.38-1.384 1.143-.324.761-.598 2.207-.826 4.34-.15-.021-.276-.037-.381-.048a1.858 1.858 0 0 0-.476-.005c-.08.01-.22.025-.421.052zm8.505-.937c-.359.378-.72.655-1.085.828-.363.172-.769.259-1.214.259-.68 0-1.228-.246-1.64-.738-.414-.49-.62-1.146-.62-1.963 0-1.148.326-2.11.982-2.884.655-.772 1.47-1.16 2.447-1.16.453 0 .85.124 1.188.372.34.246.583.589.732 1.025l.302-1.488c.134-.664.248-1.27.347-1.82.099-.547.184-1.069.256-1.563.16.031.285.051.377.062a1.846 1.846 0 0 0 .527-.004c.116-.013.247-.031.387-.058a75.088 75.088 0 0 0-1.19 4.985 77.164 77.164 0 0 0-.864 5.084 6.412 6.412 0 0 0-.31-.031 3.597 3.597 0 0 0-.518 0c-.104.007-.22.018-.347.031l.243-.937zm-1.008-4.89c-.666 0-1.223.334-1.666 1.003-.443.669-.664 1.503-.664 2.504 0 .58.123 1.024.366 1.333.243.307.594.461 1.052.461.7 0 1.272-.333 1.721-1 .45-.664.675-1.508.675-2.524 0-.577-.127-1.018-.381-1.32-.257-.304-.623-.457-1.103-.457z"/>
    </g>
</svg>
