<svg xmlns="http://www.w3.org/2000/svg" width="41" height="25.35" viewBox="0 0 41 25.35">
    <g fill="none" fill-rule="evenodd">
        <path fill="#FF5F00" d="M15.124 22.79h11.065V2.848H15.124z"/>
        <path fill="#EB001B" d="M15.634 12.663c0-4.04 1.89-7.637 4.831-9.956A12.585 12.585 0 0 0 12.648 0C5.663 0 0 5.669 0 12.663c0 6.993 5.663 12.662 12.648 12.662 2.95 0 5.666-1.011 7.817-2.707a12.645 12.645 0 0 1-4.831-9.955"/>
        <path fill="#F79E1B" d="M40.605 20.51v-.493h-.128l-.147.338-.148-.338h-.128v.492h.09v-.37l.139.319h.093l.139-.32v.371h.09zm-.812 0V20.1h.164v-.083h-.418v.083h.164v.408h.09zM41 12.662c0 6.993-5.663 12.662-12.648 12.662-2.95 0-5.666-1.011-7.817-2.707a12.645 12.645 0 0 0 4.831-9.955c0-4.04-1.89-7.637-4.831-9.956A12.585 12.585 0 0 1 28.352 0C35.337 0 41 5.669 41 12.663z"/>
    </g>
</svg>
