<svg xmlns="http://www.w3.org/2000/svg" width="60" height="26" viewBox="0 0 60 19">
    <path fill="#16216A" fill-rule="evenodd" d="M39.46.143c1.873 0 3.375.384 4.332.74l-.655 3.813-.435-.203a8.969 8.969 0 0 0-3.616-.674c-1.89 0-2.768.783-2.768 1.514-.01.824 1.025 1.366 2.715 2.18 2.789 1.258 4.074 2.78 4.057 4.78-.038 3.655-3.335 6.012-8.416 6.012-2.168-.021-4.256-.446-5.384-.937l.68-3.94.621.279c1.589.656 2.615.923 4.548.923 1.39 0 2.88-.537 2.895-1.717.007-.77-.627-1.32-2.507-2.181-1.835-.842-4.261-2.255-4.235-4.782.03-3.421 3.394-5.807 8.168-5.807zm16.693 0L60 18.305h-4.41s-.436-2.087-.577-2.723l-6.083-.008c-.187.492-1 2.731-1 2.731h-4.99L49.994 1.65c.5-1.182 1.35-1.507 2.489-1.507h3.669zM7.993 0C9 .037 9.826.332 10.165 1.298l.055.177 1.722 8.039c-.077-.191-.16-.381-.246-.57l-.111-.232.069.144c.135.294.253.588.353.88l.095.291.506 2.52L17.344.144h5.122l-7.614 18.155-5.118.007L5.412 2.418C3.985 1.622 2.362.97.55.5L0 .364.059 0h7.933zM29.29.143l-2.959 18.162h-4.718L24.564.143h4.726zm23.526 4.9l.322 1.566 1.101 5.249h-3.943c.394-1.048 1.891-5.082 1.891-5.082-.026.05.391-1.052.63-1.734z"/>
</svg>
